# xmcd CD database file
#
# Track frame offsets:
#	150
#	19945
#	36455
#
# Disc length: 746 seconds
#
# Revision: 2
# Processed by: cddbd v1.5.1PL0 Copyright (c) Steve Scherf et al.
# Submitted via: CDex 1.51
#
DISCID=2102e803
DTITLE=the Indigo - Sweet Radio featuring 西寺郷太
DYEAR=2003
DGENRE=JPop
TTITLE0=Sweet Radio featuring 西寺郷太
TTITLE1=スーパーボール
TTITLE2=Sweet Radio (instrumental)
EXTD=YEAR: 2003
EXTT0=
EXTT1=
EXTT2=
PLAYORDER=
